<?xml version="1.0" standalone="no"?>
<!DOCTYPE svg PUBLIC "-//W3C//DTD SVG 20010904//EN"
 "http://www.w3.org/TR/2001/REC-SVG-20010904/DTD/svg10.dtd">
<svg version="1.0" xmlns="http://www.w3.org/2000/svg"
 width="80.000000pt" height="80.000000pt" viewBox="0 0 80.000000 80.000000"
 preserveAspectRatio="xMidYMid meet">
<metadata>
Created by potrace 1.14, written by Peter Selinger 2001-2017
</metadata>
<g transform="translate(0.000000,80.000000) scale(0.100000,-0.100000)"
fill="#000000" stroke="none">
<path d="M211 763 c-1 -17 -7 -23 -24 -23 -13 0 -31 -8 -40 -18 -15 -16 -17
-55 -17 -334 0 -292 1 -316 18 -331 16 -15 49 -17 249 -17 210 0 231 2 246 18
15 16 17 48 17 237 l0 218 61 63 c69 73 76 106 26 134 -25 13 -30 13 -55 -1
-26 -15 -29 -15 -45 8 -10 13 -28 23 -42 23 -17 0 -25 7 -28 23 l-4 22 -2 -22
c-1 -21 -6 -23 -55 -23 -49 0 -55 2 -59 23 l-4 22 -2 -22 c-1 -21 -6 -23 -55
-23 -49 0 -55 2 -59 23 l-4 22 -2 -22 c-1 -21 -6 -23 -55 -23 -49 0 -55 2 -59
23 l-4 22 -2 -22z"/>
</g>
</svg>
